<svg width="20" height="20" viewBox="0 0 20 20" fill="none" xmlns="http://www.w3.org/2000/svg">
<g clip-path="url(#clip0_1333_10612)">
<path d="M20.2404 9.78637L20.2401 9.7865H20.2404C20.1101 9.97464 20.0628 10.2011 20.0231 10.4373C19.9744 10.7248 19.9231 11.0008 19.8167 11.2713C19.6888 11.5957 19.4741 11.957 19.1003 12.2399C18.7118 11.235 18.1463 10.3123 17.4404 9.50534C17.8858 9.33526 18.323 9.33791 18.6824 9.39453C18.9809 9.44174 19.2568 9.53728 19.5419 9.64076C19.7756 9.72605 20.0047 9.80017 20.2404 9.78637Z" fill="#FAB60F"/>
<path d="M15.9506 5.52002L15.9505 5.52024L15.9508 5.52017C15.9362 5.75569 16.0144 5.98457 16.1042 6.21834C16.2133 6.50326 16.314 6.77898 16.3638 7.0774C16.4235 7.43696 16.4263 7.87444 16.2465 8.32002C15.3946 7.61542 14.4205 7.0515 13.3604 6.66465C13.6592 6.28795 14.0418 6.07191 14.3853 5.94357C14.6705 5.83719 14.9615 5.78589 15.2647 5.73716C15.5135 5.69754 15.7523 5.65033 15.9506 5.52002Z" fill="#FAB60F"/>
<path d="M19.5996 13.9199C20.0646 13.9907 20.4347 14.2141 20.7111 14.4477C20.9417 14.6429 21.1281 14.871 21.3182 15.1112C21.4738 15.3083 21.6312 15.4929 21.8396 15.5999H19.7402C19.7395 15.0271 19.6911 14.466 19.5996 13.9199Z" fill="#FAB60F"/>
<path d="M4.04926 5.52009L4.04941 5.52024V5.52002C4.24775 5.65026 4.48659 5.69747 4.73543 5.73723C5.03852 5.7859 5.32948 5.83719 5.61471 5.94349C5.95815 6.07183 6.34086 6.28795 6.63961 6.66465C5.57927 7.05143 4.60538 7.61542 3.75345 8.32002C3.57372 7.87444 3.57636 7.43696 3.6362 7.07733C3.68597 6.77898 3.78668 6.50319 3.89577 6.2182C3.9856 5.98457 4.06382 5.75562 4.04926 5.52009Z" fill="#FAB60F"/>
<path d="M-0.240234 9.7865L-0.240015 9.78657L-0.240087 9.78637C-0.00446084 9.8001 0.224596 9.72598 0.458398 9.64076C0.743442 9.53728 1.01929 9.44174 1.31776 9.39446C1.67726 9.33791 2.11443 9.33533 2.55977 9.50534C1.85383 10.3123 1.28856 11.2351 0.899942 12.2399C0.526137 11.957 0.311386 11.5957 0.1835 11.2713C0.0770737 11.0008 0.0257582 10.7248 -0.0229291 10.4372C-0.0626382 10.2011 -0.109939 9.97457 -0.240234 9.7865Z" fill="#FAB60F"/>
<path d="M-1.83984 15.5999C-1.63145 15.4929 -1.47418 15.3083 -1.31835 15.1111C-1.12832 14.871 -0.941957 14.6429 -0.711383 14.4478C-0.434794 14.2141 -0.065025 13.9907 0.400156 13.9199C0.308632 14.466 0.260313 15.0271 0.259737 15.5999H-1.83984Z" fill="#FAB60F"/>
<path d="M10.0003 3.91992V3.92014L10.0004 3.91992C10.1073 4.12756 10.2918 4.28428 10.4888 4.43949C10.7287 4.62877 10.9567 4.81439 11.1516 5.04405C11.3865 5.32126 11.6111 5.6925 11.6803 6.15992C11.1342 6.06919 10.5731 6.02142 10.0003 6.02142C9.42757 6.02142 8.86642 6.06919 8.32031 6.15992C8.38951 5.69257 8.61415 5.32126 8.84901 5.04412C9.04401 4.81439 9.27191 4.62877 9.51181 4.43941C9.70881 4.28435 9.89329 4.12756 10.0003 3.91992Z" fill="#FAB60F"/>
<path d="M8.04959 15.6001L8.77613 15.5981C8.87155 15.0044 8.68491 14.5472 8.06416 14.6563C7.54108 14.7482 6.97921 15.251 6.63965 15.5981L7.59757 15.594C7.7043 15.5261 7.9132 15.4487 7.99897 15.5063C8.0311 15.5279 8.04785 15.5586 8.04959 15.6001Z" fill="#D52736"/>
<path d="M11.3232 15.5998H12.2336C12.2769 14.5245 12.1037 13.4142 11.6039 12.4535C11.1492 11.5794 10.3977 10.9853 9.42476 10.8417C8.00445 10.6321 6.57133 11.2334 5.35971 12.0937C4.0405 13.0303 2.9516 14.3024 2 15.5998L3.20274 15.5981C4.28552 14.0633 6.776 11.7332 8.60805 11.718C9.1919 11.7132 9.78551 11.8502 10.2244 12.2418C10.5424 12.5255 10.9279 13.0766 10.9091 13.5238C10.8979 13.789 10.6625 13.8703 10.4369 13.7881C10.2616 13.7243 10.1377 13.5641 10.0151 13.3956C9.61646 12.8483 8.99466 12.5805 8.31262 12.6738C7.49919 12.785 6.49085 13.4167 5.8405 13.9911C5.27966 14.4866 4.76478 15.0288 4.27911 15.5998H5.57224C6.04619 15.0276 6.54664 14.5396 7.19 14.1389C7.39358 14.012 7.64428 13.8779 7.9078 13.7873C8.57257 13.5588 9.23414 13.6167 9.52789 14.4444C9.64334 14.7699 9.66031 15.0553 9.62666 15.5785L9.62658 15.5998H10.5059L10.5081 15.5729C10.5088 15.2864 10.5025 15.0934 10.5284 14.8095C10.5506 14.5648 10.6266 14.3113 10.8539 14.2811C11.3368 14.1799 11.3137 15.2545 11.3232 15.5998Z" fill="#D52736"/>
<path d="M13.1522 15.5999H14.0693C14.1137 14.619 14.0283 13.4569 13.7058 12.4422C13.6422 12.242 13.5695 12.0477 13.4869 11.8622C13.2917 11.4237 13.029 11.0268 12.7158 10.66C12.3677 10.2524 11.953 9.88604 11.4854 9.59741C11.3474 9.51226 11.2044 9.43362 11.0567 9.36257V9.36243C10.91 9.29188 10.7585 9.22879 10.6025 9.17428L10.6019 9.17407C8.81588 8.54991 7.00952 8.9938 5.49428 9.80496C5.19886 9.96317 4.91457 10.1352 4.64389 10.3159C4.37328 10.4964 4.11562 10.6862 3.87332 10.8796H3.87324L3.87281 10.88C3.58517 11.1097 3.22528 11.4238 2.8691 11.7952C2.79896 11.8683 2.72968 11.9428 2.66231 12.0181C2.48207 12.2192 2.20433 12.5011 2.28677 12.7926C2.35204 13.0238 2.6551 12.9557 2.76068 12.8761C2.92273 12.7905 3.10071 12.6548 3.253 12.528C3.45922 12.3562 3.65401 12.1712 3.85818 11.997C4.68405 11.2923 5.54485 10.7489 6.39277 10.3811C6.57759 10.301 6.76263 10.2289 6.94701 10.1651C7.13074 10.1016 7.31353 10.0466 7.49471 10.0003L7.49558 10.0001C9.07332 9.59684 10.7878 9.85803 11.8855 11.1245C12.943 12.3443 13.136 13.9772 13.1522 15.5999ZM1.77277 14.2209C1.87129 14.1303 1.9717 14.0122 2.07634 13.8815C2.22274 13.6987 2.23744 13.5217 2.17959 13.3939C2.15805 13.3462 2.12625 13.3052 2.08762 13.2734C2.04927 13.2419 2.00401 13.2194 1.95519 13.2084C1.83585 13.1815 1.69316 13.2236 1.57201 13.3687C1.435 13.5327 1.24581 13.8133 1.20717 14.0614C1.19997 14.1079 1.198 14.1531 1.20288 14.1955C1.20761 14.2368 1.21881 14.276 1.23766 14.3118L1.23781 14.3122L1.23788 14.3121C1.26873 14.3704 1.32076 14.4011 1.39017 14.4037C1.40465 14.4042 1.4203 14.4036 1.43696 14.4018C1.45319 14.4 1.4708 14.3968 1.4895 14.3925L1.48957 14.3927L1.49044 14.3925C1.58387 14.3704 1.6773 14.3085 1.77277 14.2209Z" fill="#D52736"/>
<path d="M15.4711 15.5999L15.4776 15.5997H15.4809C15.5773 15.6049 15.7444 15.5614 15.8408 15.402C15.86 15.3701 15.8765 15.3337 15.889 15.2923C15.9018 15.2502 15.9106 15.2025 15.9144 15.1489H15.9144L15.9151 15.1378C15.9883 12.6319 15.2052 10.5574 13.8759 9.14799C13.6177 8.87432 13.3385 8.62534 13.0407 8.40307C12.7431 8.18093 12.4273 7.98572 12.0958 7.81921L12.0958 7.81928L12.0905 7.8167L12.0904 7.81656C10.973 7.25682 9.7058 7.04185 8.46196 7.14515C8.21928 7.16527 7.97813 7.19741 7.73984 7.24129C7.50096 7.28532 7.26405 7.34123 7.03064 7.40873L7.02736 7.40973C5.74816 7.78062 4.55778 8.51689 3.58772 9.48295C3.39879 9.67115 3.21827 9.8678 3.04752 10.0719C2.96259 10.1733 2.87992 10.2766 2.7998 10.3816C3.48008 9.80623 4.20994 9.30155 4.97332 8.90059C5.14523 8.81032 5.31817 8.72549 5.49161 8.64689C5.66528 8.56807 5.84113 8.49455 6.01881 8.42683L6.01933 8.42662L6.01984 8.4264C6.69427 8.16948 7.35913 8.00562 8.02414 7.93239C8.68915 7.85915 9.3546 7.87655 10.0303 7.98185C10.5112 8.05687 10.9807 8.18029 11.4035 8.35296C11.4855 8.38646 11.5663 8.42204 11.6453 8.45962C11.7233 8.4967 11.8001 8.53607 11.8754 8.57774H11.8755L11.8767 8.57831L11.8766 8.57838C13.3654 9.3775 14.3997 11.0173 14.8553 12.8686C14.9441 13.2297 15.011 13.5985 15.0549 13.9701C15.0988 14.3414 15.1198 14.717 15.1172 15.0917V15.0919L15.1169 15.1134C15.1245 15.3139 15.1947 15.4817 15.3148 15.5572C15.3371 15.5712 15.3614 15.5822 15.3872 15.5893H15.3873C15.4136 15.5966 15.4416 15.6003 15.4711 15.5999Z" fill="#D52736"/>
<path d="M12.7998 7.27979C16.3669 8.43432 18.9448 11.7214 18.9598 15.5998H17.1948C17.3116 12.2119 15.8027 9.1539 12.7998 7.27979Z" fill="#FAB60F"/>
</g>
<defs>
<clipPath id="clip0_1333_10612">
<rect width="20" height="20" fill="white"/>
</clipPath>
</defs>
</svg>
