<svg width="20" height="20" viewBox="0 0 20 20" fill="none" xmlns="http://www.w3.org/2000/svg">
<path d="M11.6378 7.2338V0H5.4232C5.10638 0.00101771 4.80281 0.137105 4.57878 0.378541C4.35476 0.619976 4.22848 0.947141 4.22754 1.28858V18.7114C4.22848 19.0529 4.35476 19.38 4.57878 19.6215C4.80281 19.8629 5.10638 19.999 5.4232 20H18.8046C19.1214 19.999 19.425 19.8629 19.649 19.6215C19.873 19.38 19.9993 19.0529 20.0003 18.7114V7.2338H11.6378Z" fill="#6334FA"/>
<path d="M3.20294 17.3184C2.48216 17.3139 1.78361 17.049 1.21901 16.5661C0.654412 16.0832 0.256373 15.4102 0.0885485 14.6547C-0.0792759 13.8993 -0.00719085 13.105 0.293276 12.3989C0.593743 11.6928 1.10523 11.1156 1.74595 10.7598C1.77055 9.78481 2.08505 8.84413 2.64311 8.0763C3.20117 7.30847 3.97329 6.75409 4.84574 6.49484C5.71818 6.23558 6.64482 6.28514 7.48916 6.63623C8.3335 6.98732 9.05089 7.62136 9.53566 8.44497C9.91353 8.28563 10.3149 8.2007 10.7206 8.1942C11.434 8.19224 12.1292 8.43652 12.7045 8.89125C13.2798 9.34598 13.7048 9.98728 13.9174 10.7212C14.4564 11.0094 14.9098 11.4545 15.2261 12.0062C15.5425 12.5578 15.7091 13.1939 15.7073 13.8424C15.7086 14.6767 15.4312 15.4837 14.9257 16.1157C14.4201 16.7476 13.7204 17.1623 12.9544 17.2837V17.3184H3.20294Z" fill="#6334FF"/>
<path d="M13.5094 11.0806C13.4071 10.6179 13.2077 10.1866 12.9264 9.81997C12.6452 9.45335 12.2896 9.16116 11.8871 8.96589C11.4846 8.77062 11.0459 8.67747 10.6048 8.69362C10.1636 8.70976 9.73179 8.83476 9.34252 9.05901C8.96353 8.24184 8.3398 7.58636 7.57225 7.19863C6.8047 6.81089 5.93821 6.71358 5.11297 6.92242C4.28773 7.13126 3.552 7.63405 3.02481 8.34945C2.49762 9.06485 2.2098 9.951 2.20792 10.8646C2.20792 10.9302 2.20792 10.9996 2.20792 11.0652C1.60654 11.3159 1.10545 11.7854 0.791383 12.3923C0.477319 12.9992 0.370058 13.7054 0.488171 14.3885C0.606283 15.0717 0.942333 15.6888 1.43814 16.1331C1.93395 16.5774 2.5583 16.8209 3.20311 16.8214H12.4892C13.1297 16.8181 13.7493 16.5752 14.242 16.1341C14.7347 15.693 15.0699 15.0812 15.1904 14.4033C15.3109 13.7253 15.2092 13.0233 14.9025 12.4172C14.5959 11.8112 14.1035 11.3387 13.5094 11.0806Z" fill="white"/>
<path opacity="0.6" d="M12.5605 6.40046H19.9994L12.5605 0V6.40046Z" fill="black"/>
<path d="M12.5605 6.40046H19.9994L12.5605 0V6.40046Z" fill="#6334FF"/>
<path d="M7.10758 12.6583C7.4852 12.6583 7.79132 12.3284 7.79132 11.9215C7.79132 11.5145 7.4852 11.1846 7.10758 11.1846C6.72995 11.1846 6.42383 11.5145 6.42383 11.9215C6.42383 12.3284 6.72995 12.6583 7.10758 12.6583Z" fill="#6334FA"/>
<path d="M7.30545 12.1914H6.90809L6.44629 14.2477H7.77083L7.30545 12.1914Z" fill="#6334FA"/>
</svg>
