<svg width="24" height="24" viewBox="0 0 24 24" fill="none" xmlns="http://www.w3.org/2000/svg">
<g clip-path="url(#clip0_1130_7074)">
<path d="M23.7459 12.2705C23.7459 11.4805 23.6759 10.7305 23.5559 10.0005H12.2559V14.5105H18.7259C18.4359 15.9905 17.5859 17.2405 16.3259 18.0905V21.0905H20.1859C22.4459 19.0005 23.7459 15.9205 23.7459 12.2705Z" fill="#4285F4"/>
<path d="M12.2549 24.0005C15.4949 24.0005 18.2049 22.9205 20.1849 21.0905L16.3249 18.0905C15.2449 18.8105 13.8749 19.2505 12.2549 19.2505C9.12492 19.2505 6.47492 17.1405 5.52492 14.2905H1.54492V17.3805C3.51492 21.3005 7.56492 24.0005 12.2549 24.0005Z" fill="#34A853"/>
<path d="M5.52586 14.2906C5.27586 13.5706 5.14586 12.8006 5.14586 12.0006C5.14586 11.2006 5.28586 10.4306 5.52586 9.71061V6.62061H1.54586C0.725858 8.24061 0.255859 10.0606 0.255859 12.0006C0.255859 13.9406 0.725858 15.7606 1.54586 17.3806L5.52586 14.2906Z" fill="#FBBC05"/>
<path d="M12.2549 4.75049C14.0249 4.75049 15.6049 5.36049 16.8549 6.55049L20.2749 3.13049C18.2049 1.19049 15.4949 0.000488281 12.2549 0.000488281C7.56492 0.000488281 3.51492 2.70049 1.54492 6.62049L5.52492 9.71049C6.47492 6.86049 9.12492 4.75049 12.2549 4.75049Z" fill="#EA4335"/>
</g>
<defs>
<clipPath id="clip0_1130_7074">
<rect width="24" height="24" fill="white" transform="translate(0 0.000488281)"/>
</clipPath>
</defs>
</svg>
